<svg width="2482px" height="1761px" viewBox="0 0 2482 1761" version="1.1" xmlns="http://www.w3.org/2000/svg" xmlns:xlink="http://www.w3.org/1999/xlink">
    <title>Group</title>
    <defs>
        <filter x="-2.1%" y="-2.9%" width="104.2%" height="105.7%" filterUnits="objectBoundingBox" id="filter-1">
            <feOffset dx="0" dy="8" in="SourceAlpha" result="shadowOffsetOuter1"></feOffset>
            <feGaussianBlur stdDeviation="6.5" in="shadowOffsetOuter1" result="shadowBlurOuter1"></feGaussianBlur>
            <feColorMatrix values="0 0 0 0 0   0 0 0 0 0   0 0 0 0 0  0 0 0 0.298432037 0" type="matrix" in="shadowBlurOuter1" result="shadowMatrixOuter1"></feColorMatrix>
            <feMerge>
                <feMergeNode in="shadowMatrixOuter1"></feMergeNode>
                <feMergeNode in="SourceGraphic"></feMergeNode>
            </feMerge>
        </filter>
        <path d="M1404.85741,34.1709604 C1328.07652,68.9606897 1268.37533,125.975406 1229.89695,194.151644 L1229.89695,194.151644 C1210.79812,227.93714 1203.43862,251.551823 1161.42593,270.584906 L1161.42593,270.584906 C1118.00627,290.257045 1068.98244,281.631465 1035.06992,252.498574 L1035.06992,252.498574 C1022.91458,241.387771 1017.31717,236.998903 1002.43922,227.436715 L1002.43922,227.436715 C934.935487,184.119461 847.514445,174.807486 768.998525,210.381666 L768.998525,210.381666 C742.959582,222.175482 725.778411,239.095281 702.012253,249.861196 L702.012253,249.861196 C664.365873,266.923007 622.508754,262.669388 589.952465,242.21956 L589.952465,242.21956 L587.760852,240.816339 C581.29762,236.562721 577.986524,234.723319 571.469179,231.024226 L571.469179,231.024226 C468.737279,172.653627 340.433168,162.567344 224.568495,215.064704 L224.568495,215.064704 C32.2746712,302.186112 -52.9649033,528.652405 34.1788049,720.897021 L34.1788049,720.897021 C88.0390685,839.707547 195.137286,917.615036 314.485542,939.248303 L314.485542,939.248303 L315.679431,939.505279 C350.579529,946.108869 381.81679,969.033776 397.594381,1003.84041 L397.594381,1003.84041 C411.772229,1035.11025 410.497169,1069.43675 397.026185,1098.26195 L397.026185,1098.26195 L397.060006,1098.33634 C369.35706,1155.39501 366.289477,1223.87894 394.526798,1286.16841 L394.526798,1286.16841 C444.920388,1397.34069 575.923431,1446.62247 687.12416,1396.2384 L687.12416,1396.2384 C791.804161,1348.80954 841.605881,1229.96182 805.045162,1123.4523 L805.045162,1123.4523 L805.051926,1123.42525 C781.441345,1035.28946 841.632938,932.648094 910.895376,901.273432 L910.895376,901.273432 C980.157815,869.892008 1022.33285,878.970677 1070.85613,901.652133 L1070.85613,901.652133 L1071.3161,901.851627 C1134.39941,932.276156 1210.01347,935.559355 1278.79564,904.39433 L1278.79564,904.39433 C1326.89954,882.602144 1365.33733,847.092208 1391.03468,801.583901 L1391.03468,801.583901 C1400.86312,786.134948 1415.14582,773.265893 1433.0812,765.144119 L1433.0812,765.144119 C1446.21059,759.193111 1459.97244,756.393432 1473.51107,756.417101 L1473.51107,756.417101 C1486.04859,756.44077 1500.3651,759.554905 1512.91615,761.201576 L1512.91615,761.201576 C1581.30262,770.246433 1652.97651,760.907407 1720.43628,730.340865 L1720.43628,730.340865 C1912.72672,643.219457 1997.96291,416.749782 1910.82259,224.508548 L1910.82259,224.508548 C1846.87684,83.449366 1707.86155,0 1562.42024,0 L1562.42024,0 C1509.64902,0 1456.05256,10.9755534 1404.85741,34.1709604" id="path-2"></path>
        <linearGradient x1="19.1917704%" y1="55.055285%" x2="71.8708386%" y2="38.0110644%" id="linearGradient-4">
            <stop stop-color="#8094FF" offset="0%"></stop>
            <stop stop-color="#24BAD6" offset="100%"></stop>
        </linearGradient>
        <path d="M16.9292326,182.228713 C-29.4818314,309.190274 22.7244791,448.11522 134.513092,515.164156 L134.513092,515.164156 L134.407545,515.652508 C172.269332,535.284727 190.550991,580.436377 175.524095,621.551152 L175.524095,621.551152 C171.319412,633.043362 164.922795,643.095059 156.987161,651.411757 L156.987161,651.411757 L156.969979,651.59581 L156.96507,651.603172 C137.208213,670.045188 121.371309,693.277465 111.459743,720.394468 L111.459743,720.394468 C77.7830034,812.52111 125.178351,914.493311 217.323017,948.160113 L217.323017,948.160113 C309.467683,981.829369 411.46255,934.444554 445.13929,842.317911 L445.13929,842.317911 C468.767008,777.683737 452.483372,708.207768 408.841066,660.869579 L408.841066,660.869579 L408.895067,659.721094 C406.74977,658.09162 404.700201,656.366439 402.736543,654.560275 L402.736543,654.560275 C401.894625,653.723451 401.030615,652.911168 400.161696,652.096431 L400.161696,652.096431 C377.226167,629.148821 368.308704,594.147028 380.186382,561.655705 L380.186382,561.655705 C387.083732,542.791597 399.896602,527.795035 415.755598,518.001012 L415.755598,518.001012 L415.765416,517.890581 C470.416481,486.51584 514.738704,436.458589 538.066964,372.651423 L538.066964,372.651423 C590.663552,228.771796 516.636088,69.5127802 372.726935,16.930335 L372.726935,16.930335 C341.301039,5.4454868 309.141225,0 277.518962,0 L277.518962,0 C164.336152,0 58.0384191,69.7729071 16.9292326,182.228713" id="path-5"></path>
        <linearGradient x1="53.2339303%" y1="30.754086%" x2="53.2339303%" y2="96.0361489%" id="linearGradient-7">
            <stop stop-color="#8094FF" offset="0%"></stop>
            <stop stop-color="#24BAD6" offset="100%"></stop>
        </linearGradient>
        <path d="M172.707768,95.8677142 L172.674428,95.8616456 C164.803064,110.410981 147.18115,117.186511 131.353556,111.066384 L131.353556,111.066384 C126.928376,109.358089 123.076045,106.806266 119.911739,103.668828 L119.911739,103.668828 L119.838996,103.665794 C112.831451,95.8707485 103.938659,89.5655307 93.4970536,85.5329829 L93.4970536,85.5329829 C58.0319671,71.8241409 18.1901962,89.4957425 4.49941798,124.993694 L4.49941798,124.993694 C-9.18832927,160.497713 8.46086298,200.383222 43.9229185,214.092064 L43.9229185,214.092064 C68.8009144,223.704638 95.8430049,217.878836 114.486347,201.281366 L114.486347,201.281366 L114.931896,201.311709 C115.577487,200.492456 116.253388,199.709613 116.968691,198.966217 L116.968691,198.966217 L117.981027,197.940633 C127.034459,189.229237 140.643402,186.037183 153.130895,190.861676 L153.130895,190.861676 C160.393039,193.671412 166.112432,198.744715 169.801092,204.961939 L169.801092,204.961939 L169.807154,204.961939 C184.192018,246.331207 215.956321,281.337606 259.971703,298.347736 L259.971703,298.347736 C339.461265,329.069742 428.786242,289.463387 459.468498,209.880494 L459.468498,209.880494 C490.156815,130.297601 450.593891,40.8836667 371.101299,10.1616602 L371.101299,10.1616602 C352.830763,3.10090865 334.051028,-0.245893645 315.574388,-0.245893645 L315.574388,-0.245893645 C254.597838,-0.239825101 197.012915,36.2139217 172.707768,95.8677142" id="path-8"></path>
        <linearGradient x1="12.4493442%" y1="50%" x2="66.3574403%" y2="50%" id="linearGradient-10">
            <stop stop-color="#8094FF" offset="0%"></stop>
            <stop stop-color="#24BAD6" offset="100%"></stop>
        </linearGradient>
    </defs>
    <g id="Symbols" stroke="none" stroke-width="1" fill="none" fill-rule="evenodd">
        <g id="Molecule-BG-2" transform="translate(-140.000000, -179.000000)">
            <g id="Group" transform="translate(173.965372, 179.851713)">
                <g id="Group-6" filter="url(#filter-1)" transform="translate(1051.534628, 905.148287) scale(-1, 1) rotate(7.000000) translate(-1051.534628, -905.148287) translate(79.034628, 197.148287)">
                    <mask id="mask-3" fill="white">
                        <use xlink:href="#path-2"></use>
                    </mask>
                    <g id="Clip-5"></g>
                    <path d="M1404.85741,34.1709604 C1328.07652,68.9606897 1268.37533,125.975406 1229.89695,194.151644 L1229.89695,194.151644 C1210.79812,227.93714 1203.43862,251.551823 1161.42593,270.584906 L1161.42593,270.584906 C1118.00627,290.257045 1068.98244,281.631465 1035.06992,252.498574 L1035.06992,252.498574 C1022.91458,241.387771 1017.31717,236.998903 1002.43922,227.436715 L1002.43922,227.436715 C934.935487,184.119461 847.514445,174.807486 768.998525,210.381666 L768.998525,210.381666 C742.959582,222.175482 725.778411,239.095281 702.012253,249.861196 L702.012253,249.861196 C664.365873,266.923007 622.508754,262.669388 589.952465,242.21956 L589.952465,242.21956 L587.760852,240.816339 C581.29762,236.562721 577.986524,234.723319 571.469179,231.024226 L571.469179,231.024226 C468.737279,172.653627 340.433168,162.567344 224.568495,215.064704 L224.568495,215.064704 C32.2746712,302.186112 -52.9649033,528.652405 34.1788049,720.897021 L34.1788049,720.897021 C88.0390685,839.707547 195.137286,917.615036 314.485542,939.248303 L314.485542,939.248303 L315.679431,939.505279 C350.579529,946.108869 381.81679,969.033776 397.594381,1003.84041 L397.594381,1003.84041 C411.772229,1035.11025 410.497169,1069.43675 397.026185,1098.26195 L397.026185,1098.26195 L397.060006,1098.33634 C369.35706,1155.39501 366.289477,1223.87894 394.526798,1286.16841 L394.526798,1286.16841 C444.920388,1397.34069 575.923431,1446.62247 687.12416,1396.2384 L687.12416,1396.2384 C791.804161,1348.80954 841.605881,1229.96182 805.045162,1123.4523 L805.045162,1123.4523 L805.051926,1123.42525 C781.441345,1035.28946 841.632938,932.648094 910.895376,901.273432 L910.895376,901.273432 C980.157815,869.892008 1022.33285,878.970677 1070.85613,901.652133 L1070.85613,901.652133 L1071.3161,901.851627 C1134.39941,932.276156 1210.01347,935.559355 1278.79564,904.39433 L1278.79564,904.39433 C1326.89954,882.602144 1365.33733,847.092208 1391.03468,801.583901 L1391.03468,801.583901 C1400.86312,786.134948 1415.14582,773.265893 1433.0812,765.144119 L1433.0812,765.144119 C1446.21059,759.193111 1459.97244,756.393432 1473.51107,756.417101 L1473.51107,756.417101 C1486.04859,756.44077 1500.3651,759.554905 1512.91615,761.201576 L1512.91615,761.201576 C1581.30262,770.246433 1652.97651,760.907407 1720.43628,730.340865 L1720.43628,730.340865 C1912.72672,643.219457 1997.96291,416.749782 1910.82259,224.508548 L1910.82259,224.508548 C1846.87684,83.449366 1707.86155,0 1562.42024,0 L1562.42024,0 C1509.64902,0 1456.05256,10.9755534 1404.85741,34.1709604" id="Fill-4" fill="url(#linearGradient-4)" mask="url(#mask-3)"></path>
                </g>
                <g id="Group-9" transform="translate(1899.261190, 513.882662) scale(-1, 1) rotate(-52.000000) translate(-1899.261190, -513.882662) translate(1621.761190, 34.382662)">
                    <mask id="mask-6" fill="white">
                        <use xlink:href="#path-5"></use>
                    </mask>
                    <g id="Clip-8"></g>
                    <path d="M16.9292326,182.228713 C-29.4818314,309.190274 22.7244791,448.11522 134.513092,515.164156 L134.513092,515.164156 L134.407545,515.652508 C172.269332,535.284727 190.550991,580.436377 175.524095,621.551152 L175.524095,621.551152 C171.319412,633.043362 164.922795,643.095059 156.987161,651.411757 L156.987161,651.411757 L156.969979,651.59581 L156.96507,651.603172 C137.208213,670.045188 121.371309,693.277465 111.459743,720.394468 L111.459743,720.394468 C77.7830034,812.52111 125.178351,914.493311 217.323017,948.160113 L217.323017,948.160113 C309.467683,981.829369 411.46255,934.444554 445.13929,842.317911 L445.13929,842.317911 C468.767008,777.683737 452.483372,708.207768 408.841066,660.869579 L408.841066,660.869579 L408.895067,659.721094 C406.74977,658.09162 404.700201,656.366439 402.736543,654.560275 L402.736543,654.560275 C401.894625,653.723451 401.030615,652.911168 400.161696,652.096431 L400.161696,652.096431 C377.226167,629.148821 368.308704,594.147028 380.186382,561.655705 L380.186382,561.655705 C387.083732,542.791597 399.896602,527.795035 415.755598,518.001012 L415.755598,518.001012 L415.765416,517.890581 C470.416481,486.51584 514.738704,436.458589 538.066964,372.651423 L538.066964,372.651423 C590.663552,228.771796 516.636088,69.5127802 372.726935,16.930335 L372.726935,16.930335 C341.301039,5.4454868 309.141225,0 277.518962,0 L277.518962,0 C164.336152,0 58.0384191,69.7729071 16.9292326,182.228713" id="Fill-7" fill="url(#linearGradient-7)" mask="url(#mask-6)"></path>
                </g>
                <g id="Group-21" transform="translate(1494.261584, 703.784159) scale(-1, 1) translate(-1494.261584, -703.784159) translate(1259.171134, 549.394180)">
                    <mask id="mask-9" fill="white">
                        <use xlink:href="#path-8"></use>
                    </mask>
                    <g id="Clip-20"></g>
                    <path d="M172.707768,95.8677142 L172.674428,95.8616456 C164.803064,110.410981 147.18115,117.186511 131.353556,111.066384 L131.353556,111.066384 C126.928376,109.358089 123.076045,106.806266 119.911739,103.668828 L119.911739,103.668828 L119.838996,103.665794 C112.831451,95.8707485 103.938659,89.5655307 93.4970536,85.5329829 L93.4970536,85.5329829 C58.0319671,71.8241409 18.1901962,89.4957425 4.49941798,124.993694 L4.49941798,124.993694 C-9.18832927,160.497713 8.46086298,200.383222 43.9229185,214.092064 L43.9229185,214.092064 C68.8009144,223.704638 95.8430049,217.878836 114.486347,201.281366 L114.486347,201.281366 L114.931896,201.311709 C115.577487,200.492456 116.253388,199.709613 116.968691,198.966217 L116.968691,198.966217 L117.981027,197.940633 C127.034459,189.229237 140.643402,186.037183 153.130895,190.861676 L153.130895,190.861676 C160.393039,193.671412 166.112432,198.744715 169.801092,204.961939 L169.801092,204.961939 L169.807154,204.961939 C184.192018,246.331207 215.956321,281.337606 259.971703,298.347736 L259.971703,298.347736 C339.461265,329.069742 428.786242,289.463387 459.468498,209.880494 L459.468498,209.880494 C490.156815,130.297601 450.593891,40.8836667 371.101299,10.1616602 L371.101299,10.1616602 C352.830763,3.10090865 334.051028,-0.245893645 315.574388,-0.245893645 L315.574388,-0.245893645 C254.597838,-0.239825101 197.012915,36.2139217 172.707768,95.8677142" id="Fill-19" fill="url(#linearGradient-10)" mask="url(#mask-9)"></path>
                </g>
                <g id="Group-31" transform="translate(1082.126052, 1260.796683) scale(-1, 1) translate(-1082.126052, -1260.796683) translate(965.153254, 1143.822369)" fill="#8094FF">
                    <path d="M116.884407,0.325917929 C181.492499,0.325917929 233.881374,52.7141134 233.881374,117.330467 C233.881374,181.937722 181.492499,234.325918 116.884407,234.325918 C52.2672156,234.325918 -0.118626087,181.937722 -0.118626087,117.330467 C-0.118626087,52.7141134 52.2672156,0.325917929 116.884407,0.325917929" id="Fill-22"></path>
                </g>
            </g>
        </g>
    </g>
</svg>
